<svg width="19" height="19" viewBox="0 0 19 19" fill="none" xmlns="http://www.w3.org/2000/svg">
<path id="PLus" d="M0 11.5731C0 10.0668 0 8.58565 0 7.00409C1.53136 7.00409 3.03762 7.00409 4.51877 7.00409C6.42669 7.00409 7.0543 6.35138 7.0543 4.44345C7.0543 2.98741 7.0543 1.50626 7.0543 0C8.61076 0 10.0668 0 11.6735 0C11.6735 1.205 11.6735 2.41001 11.6735 3.64012C11.6735 4.06689 11.6484 4.51877 11.6735 4.94554C11.7237 6.25096 12.4266 6.95388 13.732 7.00409C15.0375 7.02919 16.368 7.00409 17.6734 7.00409C17.9998 7.00409 18.3512 7.00409 18.7027 7.00409C18.7027 8.58565 18.7027 10.0668 18.7027 11.6484C17.2215 11.6484 15.7655 11.6484 14.2843 11.6484C12.276 11.6484 11.6233 12.3011 11.6233 14.2843C11.6233 15.7153 11.6233 17.1713 11.6233 18.6776C10.0668 18.6776 8.58566 18.6776 7.00409 18.6776C7.00409 17.1964 7.00409 15.7153 7.00409 14.2592C7.00409 12.3011 6.35138 11.6484 4.41835 11.6484C3.01251 11.6484 1.60667 11.6484 0.17573 11.6233C0.200834 11.6735 0.150626 11.6233 0 11.5731Z" fill="#00A651"/>
</svg>
