<svg width="29" height="27" viewBox="0 0 29 27" fill="none" xmlns="http://www.w3.org/2000/svg">
<path id="XMLID 24" d="M28.6875 6.74157C28.5314 6.96086 28.3174 7.02833 28.0397 7.02833C26.6112 7.01708 25.1826 7.02271 23.754 7.02271C23.6556 7.02271 23.5515 7.02271 23.4243 7.02271C23.4243 7.16889 23.4243 7.28697 23.4243 7.39942C23.4243 12.6285 23.4243 17.852 23.4243 23.081C23.4243 24.8859 22.2849 26.3534 20.544 26.8201C20.0813 26.9438 19.6243 27.0056 19.1443 27.0056C14.338 26.9944 9.52588 27 4.71956 27C4.03129 27 3.36037 26.9101 2.72416 26.6458C1.34184 26.0835 0.601513 25.0152 0.231351 23.6602C0.133027 23.2947 0.0751891 22.918 0 22.5413C0 22.232 0 21.9228 0 21.6135C0.156162 21.3717 0.375945 21.2986 0.65935 21.3043C1.15097 21.3155 1.64838 21.3099 2.14578 21.3099C2.26146 21.3099 2.37713 21.2986 2.51016 21.2874C2.51016 21.1243 2.51016 20.9894 2.51016 20.8545C2.52751 14.6021 2.53908 8.34965 2.56221 2.09725C2.56221 1.90046 2.568 1.69242 2.60848 1.50125C2.82248 0.579134 3.60908 0 4.63859 0C10.4686 0.00562266 16.3045 0.016868 22.1403 0.0281133C23.2855 0.0281133 24.4365 0.0224906 25.5816 0.050604C26.9061 0.0787173 27.872 0.685965 28.433 1.8611C28.5545 2.11412 28.6066 2.38963 28.6933 2.65952C28.6875 4.0202 28.6875 5.38089 28.6875 6.74157ZM3.42978 21.3099C3.56281 21.3099 3.66691 21.3099 3.76524 21.3099C7.26442 21.2986 10.7694 21.2874 14.2686 21.2705C14.8874 21.2705 15.5005 21.2593 16.1194 21.2593C16.5358 21.2593 16.6978 21.4223 16.6978 21.8216C16.6978 21.9846 16.6862 22.1477 16.6862 22.3107C16.6804 23.1654 16.6978 24.02 17.0332 24.8297C17.2472 25.3413 17.5942 25.7405 18.1495 25.898C18.9245 26.1116 19.7169 26.1341 20.4919 25.8867C21.7354 25.4875 22.5047 24.3967 22.5105 23.0417C22.5162 20.8657 22.5105 18.6841 22.5105 16.5081C22.5105 12.0606 22.5105 7.61308 22.5105 3.16556C22.5105 2.38401 22.7302 1.68118 23.2276 1.06268C23.2508 1.02895 23.2681 0.989589 23.3028 0.927739C23.1929 0.927739 23.1235 0.927739 23.0483 0.927739C16.9233 0.922117 10.7983 0.916494 4.67329 0.910871C3.8867 0.910871 3.48183 1.30446 3.48183 2.06352C3.46448 8.37214 3.44713 14.6808 3.42978 20.9894C3.42978 21.085 3.42978 21.1806 3.42978 21.3099ZM15.7377 22.2039C10.7983 22.2039 5.8821 22.2039 0.931188 22.2039C0.960107 22.4682 0.977458 22.6874 1.01216 22.9123C1.32448 24.959 2.6027 26.0835 4.66751 26.0892C8.61783 26.1004 12.5624 26.0892 16.5127 26.0892C16.5763 26.0892 16.6457 26.0723 16.7267 26.061C15.7781 24.9028 15.7724 23.5477 15.7377 22.2039ZM27.7274 6.11183C27.739 6.06123 27.7563 6.02749 27.7563 5.99376C27.7563 4.95919 27.7795 3.92462 27.739 2.89005C27.6985 1.88359 26.8541 1.05144 25.865 0.961475C24.61 0.854645 23.8234 1.36068 23.5168 2.48522C23.459 2.7045 23.4301 2.92941 23.4243 3.15431C23.4127 4.04269 23.4185 4.93107 23.4185 5.82508C23.4185 5.92066 23.4301 6.01625 23.4301 6.11183C24.8934 6.11183 26.3104 6.11183 27.7274 6.11183Z" fill="black"/>
</svg>
